<mxfile host="www.draw.io" modified="2019-10-18T07:27:45.244Z" agent="Mozilla/5.0 (Macintosh; Intel Mac OS X 10_14_6) AppleWebKit/537.36 (KHTML, like Gecko) Chrome/77.0.3865.120 Safari/537.36" etag="NlCD4-_paB8-xW-q3pbD" version="12.1.3" type="github" pages="1">
  <diagram id="UNYBlzUIL-WigdTODsNk" name="Page-1">
    <mxGraphModel dx="1412" dy="789" grid="1" gridSize="10" guides="1" tooltips="1" connect="1" arrows="1" fold="1" page="1" pageScale="1" pageWidth="827" pageHeight="1169" math="0" shadow="0">
      <root>
        <mxCell id="0"/>
        <mxCell id="1" parent="0"/>
        <mxCell id="_vKJoyluB2KpuyzqfbZh-11" style="edgeStyle=orthogonalEdgeStyle;rounded=0;orthogonalLoop=1;jettySize=auto;html=1;exitX=0.5;exitY=1;exitDx=0;exitDy=0;entryX=0.5;entryY=0;entryDx=0;entryDy=0;" parent="1" source="_vKJoyluB2KpuyzqfbZh-1" target="_vKJoyluB2KpuyzqfbZh-2" edge="1">
          <mxGeometry relative="1" as="geometry"/>
        </mxCell>
        <mxCell id="_vKJoyluB2KpuyzqfbZh-1" value="Mixpanel Script" style="rounded=0;whiteSpace=wrap;html=1;" parent="1" vertex="1">
          <mxGeometry x="300" y="50" width="160" height="60" as="geometry"/>
        </mxCell>
        <mxCell id="_vKJoyluB2KpuyzqfbZh-12" style="edgeStyle=orthogonalEdgeStyle;rounded=0;orthogonalLoop=1;jettySize=auto;html=1;exitX=0.5;exitY=1;exitDx=0;exitDy=0;entryX=0.5;entryY=0;entryDx=0;entryDy=0;" parent="1" source="_vKJoyluB2KpuyzqfbZh-2" target="_vKJoyluB2KpuyzqfbZh-5" edge="1">
          <mxGeometry relative="1" as="geometry"/>
        </mxCell>
        <mxCell id="_vKJoyluB2KpuyzqfbZh-2" value="try block is executed" style="rounded=0;whiteSpace=wrap;html=1;" parent="1" vertex="1">
          <mxGeometry x="300" y="137.5" width="160" height="60" as="geometry"/>
        </mxCell>
        <mxCell id="_vKJoyluB2KpuyzqfbZh-3" value="Finally block is executed" style="rounded=0;whiteSpace=wrap;html=1;" parent="1" vertex="1">
          <mxGeometry x="300" y="580.5" width="160" height="60" as="geometry"/>
        </mxCell>
        <mxCell id="_vKJoyluB2KpuyzqfbZh-20" style="edgeStyle=orthogonalEdgeStyle;rounded=0;orthogonalLoop=1;jettySize=auto;html=1;exitX=0.5;exitY=1;exitDx=0;exitDy=0;entryX=0;entryY=0.5;entryDx=0;entryDy=0;" parent="1" source="_vKJoyluB2KpuyzqfbZh-4" target="_vKJoyluB2KpuyzqfbZh-3" edge="1">
          <mxGeometry relative="1" as="geometry"/>
        </mxCell>
        <mxCell id="_vKJoyluB2KpuyzqfbZh-4" value="else block is executed" style="rounded=0;whiteSpace=wrap;html=1;" parent="1" vertex="1">
          <mxGeometry x="100" y="362.5" width="160" height="60" as="geometry"/>
        </mxCell>
        <mxCell id="_vKJoyluB2KpuyzqfbZh-14" style="edgeStyle=orthogonalEdgeStyle;rounded=0;orthogonalLoop=1;jettySize=auto;html=1;exitX=0.5;exitY=1;exitDx=0;exitDy=0;entryX=0.5;entryY=0;entryDx=0;entryDy=0;" parent="1" source="_vKJoyluB2KpuyzqfbZh-5" target="_vKJoyluB2KpuyzqfbZh-7" edge="1">
          <mxGeometry relative="1" as="geometry"/>
        </mxCell>
        <mxCell id="_vKJoyluB2KpuyzqfbZh-19" style="edgeStyle=orthogonalEdgeStyle;rounded=0;orthogonalLoop=1;jettySize=auto;html=1;exitX=0;exitY=0.5;exitDx=0;exitDy=0;" parent="1" source="_vKJoyluB2KpuyzqfbZh-5" target="_vKJoyluB2KpuyzqfbZh-4" edge="1">
          <mxGeometry relative="1" as="geometry"/>
        </mxCell>
        <mxCell id="_vKJoyluB2KpuyzqfbZh-5" value="Exception &lt;br&gt;occured?" style="rhombus;whiteSpace=wrap;html=1;" parent="1" vertex="1">
          <mxGeometry x="320" y="225" width="120" height="110" as="geometry"/>
        </mxCell>
        <mxCell id="_vKJoyluB2KpuyzqfbZh-17" style="edgeStyle=orthogonalEdgeStyle;rounded=0;orthogonalLoop=1;jettySize=auto;html=1;exitX=0.5;exitY=1;exitDx=0;exitDy=0;entryX=0.5;entryY=0;entryDx=0;entryDy=0;" parent="1" source="_vKJoyluB2KpuyzqfbZh-6" target="_vKJoyluB2KpuyzqfbZh-3" edge="1">
          <mxGeometry relative="1" as="geometry"/>
        </mxCell>
        <mxCell id="Cd3-DqoILq1p-iQr830G-3" style="edgeStyle=orthogonalEdgeStyle;rounded=0;orthogonalLoop=1;jettySize=auto;html=1;exitX=1;exitY=0.5;exitDx=0;exitDy=0;entryX=1;entryY=0.5;entryDx=0;entryDy=0;" edge="1" parent="1" source="_vKJoyluB2KpuyzqfbZh-6" target="_vKJoyluB2KpuyzqfbZh-2">
          <mxGeometry relative="1" as="geometry">
            <Array as="points">
              <mxPoint x="560" y="502"/>
              <mxPoint x="560" y="168"/>
            </Array>
          </mxGeometry>
        </mxCell>
        <mxCell id="_vKJoyluB2KpuyzqfbZh-6" value="while &lt;br&gt;retry &amp;lt;= 3 times" style="rhombus;whiteSpace=wrap;html=1;" parent="1" vertex="1">
          <mxGeometry x="320" y="446.5" width="120" height="110" as="geometry"/>
        </mxCell>
        <mxCell id="_vKJoyluB2KpuyzqfbZh-15" style="edgeStyle=orthogonalEdgeStyle;rounded=0;orthogonalLoop=1;jettySize=auto;html=1;exitX=0.5;exitY=1;exitDx=0;exitDy=0;entryX=0.5;entryY=0;entryDx=0;entryDy=0;" parent="1" source="_vKJoyluB2KpuyzqfbZh-7" target="_vKJoyluB2KpuyzqfbZh-6" edge="1">
          <mxGeometry relative="1" as="geometry"/>
        </mxCell>
        <mxCell id="_vKJoyluB2KpuyzqfbZh-7" value="exception block is executed" style="rounded=0;whiteSpace=wrap;html=1;" parent="1" vertex="1">
          <mxGeometry x="300" y="362.5" width="160" height="60" as="geometry"/>
        </mxCell>
        <mxCell id="_vKJoyluB2KpuyzqfbZh-21" value="Retry" style="text;html=1;strokeColor=none;fillColor=none;align=center;verticalAlign=middle;whiteSpace=wrap;rounded=0;" parent="1" vertex="1">
          <mxGeometry x="520" y="260" width="40" height="20" as="geometry"/>
        </mxCell>
        <mxCell id="_vKJoyluB2KpuyzqfbZh-22" value="Yes&lt;br&gt;" style="text;html=1;strokeColor=none;fillColor=none;align=center;verticalAlign=middle;whiteSpace=wrap;rounded=0;" parent="1" vertex="1">
          <mxGeometry x="560" y="556.5" width="40" height="20" as="geometry"/>
        </mxCell>
        <mxCell id="_vKJoyluB2KpuyzqfbZh-24" value="Yes&lt;br&gt;" style="text;html=1;strokeColor=none;fillColor=none;align=center;verticalAlign=middle;whiteSpace=wrap;rounded=0;" parent="1" vertex="1">
          <mxGeometry x="390" y="335" width="40" height="20" as="geometry"/>
        </mxCell>
        <mxCell id="_vKJoyluB2KpuyzqfbZh-25" value="No" style="text;html=1;strokeColor=none;fillColor=none;align=center;verticalAlign=middle;whiteSpace=wrap;rounded=0;" parent="1" vertex="1">
          <mxGeometry x="260" y="280" width="40" height="20" as="geometry"/>
        </mxCell>
        <mxCell id="_vKJoyluB2KpuyzqfbZh-26" value="No" style="text;html=1;strokeColor=none;fillColor=none;align=center;verticalAlign=middle;whiteSpace=wrap;rounded=0;" parent="1" vertex="1">
          <mxGeometry x="380" y="556.5" width="40" height="20" as="geometry"/>
        </mxCell>
      </root>
    </mxGraphModel>
  </diagram>
</mxfile>
